<mxfile host="app.diagrams.net" agent="Mozilla/5.0 (Windows NT 10.0; Win64; x64) AppleWebKit/537.36 (KHTML, like Gecko) Chrome/136.0.0.0 Safari/537.36" version="27.0.9">
  <diagram name="‫עמוד-1‬" id="vXiU_Ecwbq4-e-3IkIaf">
    <mxGraphModel dx="1042" dy="562" grid="0" gridSize="10" guides="1" tooltips="1" connect="1" arrows="1" fold="1" page="1" pageScale="1" pageWidth="1169" pageHeight="827" background="light-dark(#FFFFFF,#C2C2C2)" math="0" shadow="0">
      <root>
        <mxCell id="0" />
        <mxCell id="1" parent="0" />
        <mxCell id="s-PNCijAXyacfeFW2xFS-5" value="" style="rounded=1;whiteSpace=wrap;html=1;strokeColor=light-dark(#000000,#000000);fillColor=none;strokeWidth=4;shadow=0;glass=0;" vertex="1" parent="1">
          <mxGeometry x="372" y="56" width="74" height="69" as="geometry" />
        </mxCell>
        <mxCell id="s-PNCijAXyacfeFW2xFS-1" value="" style="rounded=1;whiteSpace=wrap;html=1;strokeColor=light-dark(#000000,#000000);fillColor=none;strokeWidth=4;shadow=0;glass=0;movable=0;resizable=0;rotatable=0;deletable=0;editable=0;locked=1;connectable=0;" vertex="1" parent="1">
          <mxGeometry x="282" y="42" width="186" height="88" as="geometry" />
        </mxCell>
        <mxCell id="s-PNCijAXyacfeFW2xFS-8" value="" style="rounded=1;whiteSpace=wrap;html=1;strokeColor=light-dark(#000000,#000000);fillColor=none;strokeWidth=4;shadow=0;glass=0;movable=0;resizable=0;rotatable=0;deletable=0;editable=0;locked=1;connectable=0;" vertex="1" parent="1">
          <mxGeometry x="19" y="386" width="250" height="186" as="geometry" />
        </mxCell>
        <mxCell id="s-PNCijAXyacfeFW2xFS-9" value="AWS Cloud9" style="sketch=0;outlineConnect=0;fontColor=#232F3E;gradientColor=none;strokeColor=#ffffff;fillColor=#232F3E;dashed=0;verticalLabelPosition=middle;verticalAlign=bottom;align=center;html=1;whiteSpace=wrap;fontSize=10;fontStyle=1;spacing=3;shape=mxgraph.aws4.productIcon;prIcon=mxgraph.aws4.cloud9;movable=0;resizable=0;rotatable=0;deletable=0;editable=0;locked=1;connectable=0;" vertex="1" parent="1">
          <mxGeometry x="24" y="405" width="80" height="101" as="geometry" />
        </mxCell>
        <mxCell id="s-PNCijAXyacfeFW2xFS-12" value="" style="rounded=1;whiteSpace=wrap;html=1;strokeColor=light-dark(#000000,#000000);fillColor=none;strokeWidth=4;shadow=0;glass=0;movable=1;resizable=1;rotatable=1;deletable=1;editable=1;locked=0;connectable=1;" vertex="1" parent="1">
          <mxGeometry x="118" y="414" width="122" height="37" as="geometry" />
        </mxCell>
        <mxCell id="s-PNCijAXyacfeFW2xFS-3" value="Amazon ECR" style="sketch=0;outlineConnect=0;fontColor=#232F3E;gradientColor=none;strokeColor=#ffffff;fillColor=#232F3E;dashed=0;verticalLabelPosition=middle;verticalAlign=bottom;align=center;html=1;whiteSpace=wrap;fontSize=10;fontStyle=1;spacing=3;shape=mxgraph.aws4.productIcon;prIcon=mxgraph.aws4.ecr;movable=0;resizable=0;rotatable=0;deletable=0;editable=0;locked=1;connectable=0;" vertex="1" parent="1">
          <mxGeometry x="294" y="43.5" width="57" height="86.5" as="geometry" />
        </mxCell>
        <mxCell id="s-PNCijAXyacfeFW2xFS-6" value="" style="image;sketch=0;aspect=fixed;html=1;points=[];align=center;fontSize=12;image=img/lib/mscae/Docker.svg;imageBorder=none;movable=1;resizable=1;rotatable=1;deletable=1;editable=1;locked=0;connectable=1;" vertex="1" parent="1">
          <mxGeometry x="374" y="62" width="67.38" height="55.25" as="geometry" />
        </mxCell>
        <mxCell id="s-PNCijAXyacfeFW2xFS-16" value="Docker Image Builder" style="text;html=1;align=center;verticalAlign=middle;whiteSpace=wrap;rounded=0;fontColor=light-dark(#050505,#000000);labelBackgroundColor=none;fontStyle=1;fontSize=14;" vertex="1" parent="1">
          <mxGeometry x="123" y="524" width="99" height="30" as="geometry" />
        </mxCell>
        <mxCell id="s-PNCijAXyacfeFW2xFS-48" style="edgeStyle=orthogonalEdgeStyle;rounded=0;orthogonalLoop=1;jettySize=auto;html=1;strokeWidth=2;strokeColor=light-dark(#000000,#000000);" edge="1" parent="1" source="s-PNCijAXyacfeFW2xFS-18">
          <mxGeometry relative="1" as="geometry">
            <mxPoint x="571.6000366210938" y="233.79998779296875" as="targetPoint" />
          </mxGeometry>
        </mxCell>
        <mxCell id="s-PNCijAXyacfeFW2xFS-18" value="" style="rounded=1;whiteSpace=wrap;html=1;strokeColor=light-dark(#000000,#000000);fillColor=none;strokeWidth=4;shadow=0;glass=0;movable=1;resizable=1;rotatable=1;deletable=1;editable=1;locked=0;connectable=1;" vertex="1" parent="1">
          <mxGeometry x="118" y="469" width="122" height="37" as="geometry" />
        </mxCell>
        <mxCell id="s-PNCijAXyacfeFW2xFS-20" value="Microservices Source Code" style="text;html=1;align=center;verticalAlign=middle;whiteSpace=wrap;rounded=0;fontColor=light-dark(#050505,#000000);labelBackgroundColor=none;movable=1;resizable=1;rotatable=1;deletable=1;editable=1;locked=0;connectable=1;fontStyle=1;fontSize=14;" vertex="1" parent="1">
          <mxGeometry x="118" y="412" width="123" height="37" as="geometry" />
        </mxCell>
        <mxCell id="s-PNCijAXyacfeFW2xFS-32" style="edgeStyle=orthogonalEdgeStyle;rounded=0;orthogonalLoop=1;jettySize=auto;html=1;strokeWidth=2;strokeColor=light-dark(#000000,#000000);movable=0;resizable=0;rotatable=0;deletable=0;editable=0;locked=1;connectable=0;" edge="1" parent="1" source="s-PNCijAXyacfeFW2xFS-21">
          <mxGeometry relative="1" as="geometry">
            <mxPoint x="371.60003662109375" y="130.6000213623047" as="targetPoint" />
          </mxGeometry>
        </mxCell>
        <mxCell id="s-PNCijAXyacfeFW2xFS-21" value="Microservices Deployment Code" style="text;html=1;align=center;verticalAlign=middle;whiteSpace=wrap;rounded=0;fontColor=light-dark(#050505,#000000);labelBackgroundColor=none;movable=1;resizable=1;rotatable=1;deletable=1;editable=1;locked=0;connectable=1;fontStyle=1;fontSize=14;" vertex="1" parent="1">
          <mxGeometry x="117" y="470" width="122" height="32.5" as="geometry" />
        </mxCell>
        <mxCell id="s-PNCijAXyacfeFW2xFS-46" style="edgeStyle=orthogonalEdgeStyle;rounded=0;orthogonalLoop=1;jettySize=auto;html=1;strokeWidth=2;strokeColor=light-dark(#000000,#000000);" edge="1" parent="1" source="s-PNCijAXyacfeFW2xFS-24">
          <mxGeometry relative="1" as="geometry">
            <mxPoint x="438" y="129.7999725341797" as="targetPoint" />
          </mxGeometry>
        </mxCell>
        <mxCell id="s-PNCijAXyacfeFW2xFS-24" value="" style="rounded=1;whiteSpace=wrap;html=1;strokeColor=light-dark(#000000,#000000);fillColor=none;strokeWidth=4;shadow=0;glass=0;movable=1;resizable=1;rotatable=1;deletable=1;editable=1;locked=0;connectable=1;fontStyle=1" vertex="1" parent="1">
          <mxGeometry x="113.25" y="520.5" width="129.5" height="37" as="geometry" />
        </mxCell>
        <mxCell id="s-PNCijAXyacfeFW2xFS-26" value="" style="rounded=1;whiteSpace=wrap;html=1;strokeColor=light-dark(#000000,#000000);fillColor=none;strokeWidth=4;shadow=0;glass=0;movable=0;resizable=0;rotatable=0;deletable=0;editable=0;locked=1;connectable=0;" vertex="1" parent="1">
          <mxGeometry x="24" y="107" width="249" height="108" as="geometry" />
        </mxCell>
        <mxCell id="s-PNCijAXyacfeFW2xFS-27" style="edgeStyle=orthogonalEdgeStyle;rounded=0;orthogonalLoop=1;jettySize=auto;html=1;fontColor=light-dark(#000000,#000000);labelBackgroundColor=default;strokeColor=light-dark(#000000,#000000);exitX=0.5;exitY=0;exitDx=0;exitDy=0;strokeWidth=2;movable=0;resizable=0;rotatable=0;deletable=0;editable=0;locked=1;connectable=0;" edge="1" parent="1" source="s-PNCijAXyacfeFW2xFS-20" target="s-PNCijAXyacfeFW2xFS-26">
          <mxGeometry relative="1" as="geometry">
            <mxPoint x="180" y="397" as="sourcePoint" />
          </mxGeometry>
        </mxCell>
        <mxCell id="s-PNCijAXyacfeFW2xFS-30" value="" style="rounded=1;whiteSpace=wrap;html=1;strokeColor=light-dark(#000000,#000000);fillColor=none;strokeWidth=4;shadow=0;glass=0;movable=1;resizable=1;rotatable=1;deletable=1;editable=1;locked=0;connectable=1;" vertex="1" parent="1">
          <mxGeometry x="123" y="132" width="122" height="37" as="geometry" />
        </mxCell>
        <mxCell id="s-PNCijAXyacfeFW2xFS-31" value="Microservices Source Code" style="text;html=1;align=center;verticalAlign=middle;whiteSpace=wrap;rounded=0;fontColor=light-dark(#050505,#000000);labelBackgroundColor=none;movable=1;resizable=1;rotatable=1;deletable=1;editable=1;locked=0;connectable=1;fontStyle=1" vertex="1" parent="1">
          <mxGeometry x="122" y="130" width="123" height="37" as="geometry" />
        </mxCell>
        <mxCell id="s-PNCijAXyacfeFW2xFS-33" value="" style="rounded=1;whiteSpace=wrap;html=1;strokeColor=light-dark(#000000,#000000);fillColor=none;strokeWidth=4;shadow=0;glass=0;movable=1;resizable=1;rotatable=1;deletable=1;editable=1;locked=0;connectable=1;" vertex="1" parent="1">
          <mxGeometry x="468" y="121" width="210" height="108" as="geometry" />
        </mxCell>
        <mxCell id="s-PNCijAXyacfeFW2xFS-34" value="AWS CodeCommit" style="sketch=0;outlineConnect=0;fontColor=#232F3E;gradientColor=none;strokeColor=#ffffff;fillColor=#232F3E;dashed=0;verticalLabelPosition=middle;verticalAlign=bottom;align=center;html=1;whiteSpace=wrap;fontSize=10;fontStyle=1;spacing=3;shape=mxgraph.aws4.productIcon;prIcon=mxgraph.aws4.codecommit;movable=1;resizable=1;rotatable=1;deletable=1;editable=1;locked=0;connectable=1;" vertex="1" parent="1">
          <mxGeometry x="476" y="130" width="68" height="95.25" as="geometry" />
        </mxCell>
        <mxCell id="s-PNCijAXyacfeFW2xFS-37" value="AWS CodeCommit" style="sketch=0;outlineConnect=0;fontColor=#232F3E;gradientColor=none;strokeColor=#ffffff;fillColor=#232F3E;dashed=0;verticalLabelPosition=middle;verticalAlign=bottom;align=center;html=1;whiteSpace=wrap;fontSize=10;fontStyle=1;spacing=3;shape=mxgraph.aws4.productIcon;prIcon=mxgraph.aws4.codecommit;movable=1;resizable=1;rotatable=1;deletable=1;editable=1;locked=0;connectable=1;" vertex="1" parent="1">
          <mxGeometry x="33" y="112.75" width="71" height="96.5" as="geometry" />
        </mxCell>
        <mxCell id="s-PNCijAXyacfeFW2xFS-39" value="" style="rounded=1;whiteSpace=wrap;html=1;strokeColor=light-dark(#000000,#000000);fillColor=none;strokeWidth=4;shadow=0;glass=0;movable=1;resizable=1;rotatable=1;deletable=1;editable=1;locked=0;connectable=1;" vertex="1" parent="1">
          <mxGeometry x="550" y="140" width="122" height="37" as="geometry" />
        </mxCell>
        <mxCell id="s-PNCijAXyacfeFW2xFS-49" style="edgeStyle=orthogonalEdgeStyle;rounded=0;orthogonalLoop=1;jettySize=auto;html=1;endArrow=none;startFill=0;strokeColor=light-dark(#000000,#000000);strokeWidth=2;" edge="1" parent="1" source="s-PNCijAXyacfeFW2xFS-40">
          <mxGeometry relative="1" as="geometry">
            <mxPoint x="436" y="93" as="targetPoint" />
            <Array as="points">
              <mxPoint x="612" y="99" />
              <mxPoint x="436" y="99" />
            </Array>
          </mxGeometry>
        </mxCell>
        <mxCell id="s-PNCijAXyacfeFW2xFS-40" value="ESK Task File" style="text;html=1;align=center;verticalAlign=middle;whiteSpace=wrap;rounded=0;fontColor=light-dark(#050505,#000000);labelBackgroundColor=none;movable=1;resizable=1;rotatable=1;deletable=1;editable=1;locked=0;connectable=1;fontStyle=1" vertex="1" parent="1">
          <mxGeometry x="556" y="142.5" width="116" height="32" as="geometry" />
        </mxCell>
        <mxCell id="s-PNCijAXyacfeFW2xFS-42" value="CodeDeployApp" style="text;html=1;align=center;verticalAlign=middle;whiteSpace=wrap;rounded=0;fontColor=light-dark(#050505,#000000);labelBackgroundColor=none;movable=1;resizable=1;rotatable=1;deletable=1;editable=1;locked=0;connectable=1;labelBorderColor=none;fontStyle=1" vertex="1" parent="1">
          <mxGeometry x="548" y="188.25" width="126" height="32" as="geometry" />
        </mxCell>
        <mxCell id="s-PNCijAXyacfeFW2xFS-59" style="edgeStyle=orthogonalEdgeStyle;rounded=0;orthogonalLoop=1;jettySize=auto;html=1;entryX=0.5;entryY=1;entryDx=0;entryDy=0;fontColor=light-dark(#000000,#000000);strokeColor=light-dark(#000000,#000000);strokeWidth=2;" edge="1" parent="1" source="s-PNCijAXyacfeFW2xFS-44" target="s-PNCijAXyacfeFW2xFS-55">
          <mxGeometry relative="1" as="geometry" />
        </mxCell>
        <mxCell id="s-PNCijAXyacfeFW2xFS-44" value="" style="rounded=1;whiteSpace=wrap;html=1;strokeColor=light-dark(#000000,#000000);fillColor=none;strokeWidth=4;shadow=0;glass=0;movable=1;resizable=1;rotatable=1;deletable=1;editable=1;locked=0;connectable=1;fontColor=light-dark(#000000,#000000);labelBackgroundColor=none;" vertex="1" parent="1">
          <mxGeometry x="550" y="185.75" width="122" height="37" as="geometry" />
        </mxCell>
        <mxCell id="s-PNCijAXyacfeFW2xFS-52" value="VPC" style="sketch=0;outlineConnect=0;gradientColor=none;html=1;whiteSpace=wrap;fontSize=12;fontStyle=0;shape=mxgraph.aws4.group;grIcon=mxgraph.aws4.group_vpc;strokeColor=#B6BABF;fillColor=none;verticalAlign=top;align=left;spacingLeft=30;fontColor=#B6BABF;dashed=0;" vertex="1" parent="1">
          <mxGeometry x="589" y="294" width="301" height="289" as="geometry" />
        </mxCell>
        <mxCell id="s-PNCijAXyacfeFW2xFS-60" style="edgeStyle=orthogonalEdgeStyle;rounded=0;orthogonalLoop=1;jettySize=auto;html=1;strokeWidth=2;strokeColor=light-dark(#000000,#000000);" edge="1" parent="1" source="s-PNCijAXyacfeFW2xFS-53">
          <mxGeometry relative="1" as="geometry">
            <mxPoint x="819.6000366210938" y="97.5" as="targetPoint" />
          </mxGeometry>
        </mxCell>
        <mxCell id="s-PNCijAXyacfeFW2xFS-53" value="" style="outlineConnect=0;dashed=0;verticalLabelPosition=bottom;verticalAlign=top;align=center;html=1;shape=mxgraph.aws3.codepipeline;fillColor=#759C3E;gradientColor=none;" vertex="1" parent="1">
          <mxGeometry x="719.88" y="68" width="55.25" height="59" as="geometry" />
        </mxCell>
        <mxCell id="s-PNCijAXyacfeFW2xFS-55" value="CodePipeLine" style="text;html=1;align=center;verticalAlign=middle;whiteSpace=wrap;rounded=0;fontColor=light-dark(#050505,#000000);labelBackgroundColor=none;movable=1;resizable=1;rotatable=1;deletable=1;editable=1;locked=0;connectable=1;fontStyle=1" vertex="1" parent="1">
          <mxGeometry x="694" y="127" width="116" height="32" as="geometry" />
        </mxCell>
        <mxCell id="s-PNCijAXyacfeFW2xFS-56" style="edgeStyle=orthogonalEdgeStyle;rounded=0;orthogonalLoop=1;jettySize=auto;html=1;exitX=0.5;exitY=1;exitDx=0;exitDy=0;" edge="1" parent="1" source="s-PNCijAXyacfeFW2xFS-55" target="s-PNCijAXyacfeFW2xFS-55">
          <mxGeometry relative="1" as="geometry" />
        </mxCell>
        <mxCell id="s-PNCijAXyacfeFW2xFS-57" value="" style="outlineConnect=0;dashed=0;verticalLabelPosition=bottom;verticalAlign=top;align=center;html=1;shape=mxgraph.aws3.codedeploy;fillColor=#759C3E;gradientColor=none;" vertex="1" parent="1">
          <mxGeometry x="821" y="66" width="65" height="61" as="geometry" />
        </mxCell>
        <mxCell id="s-PNCijAXyacfeFW2xFS-58" value="Code Deploy" style="text;html=1;align=center;verticalAlign=middle;whiteSpace=wrap;rounded=0;fontColor=light-dark(#050505,#000000);labelBackgroundColor=none;movable=1;resizable=1;rotatable=1;deletable=1;editable=1;locked=0;connectable=1;fontStyle=1" vertex="1" parent="1">
          <mxGeometry x="799" y="130" width="116" height="32" as="geometry" />
        </mxCell>
        <mxCell id="s-PNCijAXyacfeFW2xFS-83" style="edgeStyle=orthogonalEdgeStyle;rounded=0;orthogonalLoop=1;jettySize=auto;html=1;strokeColor=light-dark(#000000,#000000);strokeWidth=2;" edge="1" parent="1" source="s-PNCijAXyacfeFW2xFS-61" target="s-PNCijAXyacfeFW2xFS-75">
          <mxGeometry relative="1" as="geometry">
            <Array as="points">
              <mxPoint x="669" y="239" />
            </Array>
          </mxGeometry>
        </mxCell>
        <mxCell id="s-PNCijAXyacfeFW2xFS-61" value="Amazon ECS" style="sketch=0;outlineConnect=0;fontColor=#232F3E;gradientColor=none;strokeColor=#ffffff;fillColor=#232F3E;dashed=0;verticalLabelPosition=middle;verticalAlign=bottom;align=center;html=1;whiteSpace=wrap;fontSize=10;fontStyle=1;spacing=3;shape=mxgraph.aws4.productIcon;prIcon=mxgraph.aws4.ecs;" vertex="1" parent="1">
          <mxGeometry x="908" y="184" width="72" height="90" as="geometry" />
        </mxCell>
        <mxCell id="s-PNCijAXyacfeFW2xFS-63" style="edgeStyle=orthogonalEdgeStyle;rounded=0;orthogonalLoop=1;jettySize=auto;html=1;entryX=0.617;entryY=0.002;entryDx=0;entryDy=0;entryPerimeter=0;strokeColor=light-dark(#000000,#000000);strokeWidth=2;" edge="1" parent="1" source="s-PNCijAXyacfeFW2xFS-57" target="s-PNCijAXyacfeFW2xFS-61">
          <mxGeometry relative="1" as="geometry" />
        </mxCell>
        <mxCell id="s-PNCijAXyacfeFW2xFS-71" value="Public subnet 1" style="points=[[0,0],[0.25,0],[0.5,0],[0.75,0],[1,0],[1,0.25],[1,0.5],[1,0.75],[1,1],[0.75,1],[0.5,1],[0.25,1],[0,1],[0,0.75],[0,0.5],[0,0.25]];outlineConnect=0;gradientColor=none;html=1;whiteSpace=wrap;fontSize=12;fontStyle=0;container=1;pointerEvents=0;collapsible=0;recursiveResize=0;shape=mxgraph.aws4.group;grIcon=mxgraph.aws4.group_security_group;grStroke=0;strokeColor=#7AA116;fillColor=#F2F6E8;verticalAlign=top;align=left;spacingLeft=30;fontColor=#248814;dashed=0;" vertex="1" parent="1">
          <mxGeometry x="758" y="439" width="119" height="126" as="geometry" />
        </mxCell>
        <mxCell id="s-PNCijAXyacfeFW2xFS-77" value="Amazon EC2" style="sketch=0;outlineConnect=0;fontColor=#232F3E;gradientColor=none;strokeColor=#ffffff;fillColor=#232F3E;dashed=0;verticalLabelPosition=middle;verticalAlign=bottom;align=center;html=1;whiteSpace=wrap;fontSize=10;fontStyle=1;spacing=3;shape=mxgraph.aws4.productIcon;prIcon=mxgraph.aws4.ec2;" vertex="1" parent="s-PNCijAXyacfeFW2xFS-71">
          <mxGeometry x="37" y="47" width="40" height="68" as="geometry" />
        </mxCell>
        <mxCell id="s-PNCijAXyacfeFW2xFS-72" value="Public subnet 2" style="points=[[0,0],[0.25,0],[0.5,0],[0.75,0],[1,0],[1,0.25],[1,0.5],[1,0.75],[1,1],[0.75,1],[0.5,1],[0.25,1],[0,1],[0,0.75],[0,0.5],[0,0.25]];outlineConnect=0;gradientColor=none;html=1;whiteSpace=wrap;fontSize=12;fontStyle=0;container=1;pointerEvents=0;collapsible=0;recursiveResize=0;shape=mxgraph.aws4.group;grIcon=mxgraph.aws4.group_security_group;grStroke=0;strokeColor=#7AA116;fillColor=#F2F6E8;verticalAlign=top;align=left;spacingLeft=30;fontColor=#248814;dashed=0;" vertex="1" parent="1">
          <mxGeometry x="765" y="304" width="117" height="114" as="geometry" />
        </mxCell>
        <mxCell id="s-PNCijAXyacfeFW2xFS-74" value="Amazon EC2" style="sketch=0;outlineConnect=0;fontColor=#232F3E;gradientColor=none;strokeColor=#ffffff;fillColor=#232F3E;dashed=0;verticalLabelPosition=middle;verticalAlign=bottom;align=center;html=1;whiteSpace=wrap;fontSize=10;fontStyle=1;spacing=3;shape=mxgraph.aws4.productIcon;prIcon=mxgraph.aws4.ec2;" vertex="1" parent="s-PNCijAXyacfeFW2xFS-72">
          <mxGeometry x="30" y="40" width="40" height="68" as="geometry" />
        </mxCell>
        <mxCell id="s-PNCijAXyacfeFW2xFS-87" style="edgeStyle=orthogonalEdgeStyle;rounded=0;orthogonalLoop=1;jettySize=auto;html=1;strokeColor=light-dark(#000000,#FDFDFD);strokeWidth=2;" edge="1" parent="1" source="s-PNCijAXyacfeFW2xFS-75" target="s-PNCijAXyacfeFW2xFS-77">
          <mxGeometry relative="1" as="geometry" />
        </mxCell>
        <mxCell id="s-PNCijAXyacfeFW2xFS-88" style="edgeStyle=orthogonalEdgeStyle;rounded=0;orthogonalLoop=1;jettySize=auto;html=1;strokeColor=light-dark(#000000,#FFFFFF);strokeWidth=2;" edge="1" parent="1" source="s-PNCijAXyacfeFW2xFS-75" target="s-PNCijAXyacfeFW2xFS-74">
          <mxGeometry relative="1" as="geometry" />
        </mxCell>
        <mxCell id="s-PNCijAXyacfeFW2xFS-75" value="Application Load Balancer" style="sketch=0;outlineConnect=0;fontColor=#232F3E;gradientColor=none;strokeColor=#ffffff;fillColor=#232F3E;dashed=0;verticalLabelPosition=middle;verticalAlign=bottom;align=center;html=1;whiteSpace=wrap;fontSize=10;fontStyle=1;spacing=3;shape=mxgraph.aws4.productIcon;prIcon=mxgraph.aws4.application_load_balancer;" vertex="1" parent="1">
          <mxGeometry x="639" y="386" width="55" height="104" as="geometry" />
        </mxCell>
        <mxCell id="s-PNCijAXyacfeFW2xFS-92" style="edgeStyle=orthogonalEdgeStyle;rounded=0;orthogonalLoop=1;jettySize=auto;html=1;strokeWidth=2;" edge="1" parent="1" source="s-PNCijAXyacfeFW2xFS-89" target="s-PNCijAXyacfeFW2xFS-77">
          <mxGeometry relative="1" as="geometry" />
        </mxCell>
        <mxCell id="s-PNCijAXyacfeFW2xFS-89" value="Amazon RDS" style="sketch=0;outlineConnect=0;fontColor=#232F3E;gradientColor=none;strokeColor=#ffffff;fillColor=#232F3E;dashed=0;verticalLabelPosition=middle;verticalAlign=bottom;align=center;html=1;whiteSpace=wrap;fontSize=10;fontStyle=1;spacing=3;shape=mxgraph.aws4.productIcon;prIcon=mxgraph.aws4.rds;" vertex="1" parent="1">
          <mxGeometry x="672" y="495" width="55" height="84" as="geometry" />
        </mxCell>
      </root>
    </mxGraphModel>
  </diagram>
</mxfile>
